<svg id="Layer_1" data-name="Layer 1" xmlns="http://www.w3.org/2000/svg" viewBox="0 0 609.42643 127.56152"><defs><style>.cls-1{fill:#e53e30;}.cls-2{fill:#404040;}</style></defs><title>COLOR 03</title><path class="cls-1" d="M92.126,14.17285H7.08691A7.08643,7.08643,0,1,1,7.08691,0H92.126a7.08643,7.08643,0,1,1,0,14.17285Z"/><path class="cls-1" d="M92.126,127.55859H7.08691a7.08643,7.08643,0,1,1,0-14.17285H92.126a7.08643,7.08643,0,1,1,0,14.17285Z"/><path class="cls-1" d="M134.64453,42.51953H35.43262a7.08643,7.08643,0,1,1,0-14.17285h99.21191a7.08643,7.08643,0,1,1,0,14.17285Z"/><path class="cls-1" d="M134.64453,70.86621H35.43262a7.08643,7.08643,0,1,1,0-14.17285h99.21191a7.08643,7.08643,0,1,1,0,14.17285Z"/><path class="cls-1" d="M134.64453,99.21191H35.43262a7.08643,7.08643,0,1,1,0-14.17285h99.21191a7.08643,7.08643,0,1,1,0,14.17285Z"/><path class="cls-1" d="M120.47168,127.56152a7.10514,7.10514,0,0,1-1.37988-.14013,6.79849,6.79849,0,0,1-1.33008-.41016,6.20007,6.20007,0,0,1-1.2207-.6499,6.98538,6.98538,0,0,1-1.07911-.87988,7.03761,7.03761,0,0,1-1.94043-6.39014,6.84228,6.84228,0,0,1,.41016-1.33008,6.21655,6.21655,0,0,1,.64941-1.21973,7.07975,7.07975,0,0,1,.88086-1.08007,6.98487,6.98487,0,0,1,1.07911-.87989,6.20007,6.20007,0,0,1,1.2207-.6499,6.79849,6.79849,0,0,1,1.33008-.41016,7.14707,7.14707,0,0,1,6.38965,1.93995,6.4871,6.4871,0,0,1,.87988,1.08007,6.22062,6.22062,0,0,1,.65039,1.21973,6.91031,6.91031,0,0,1,.41016,1.33008,7.09363,7.09363,0,0,1-6.9502,8.47021Z"/><path class="cls-2" d="M226.80093,32.50206V48.34981a16.15282,16.15282,0,0,0-5.72192-4.63492,17.2594,17.2594,0,0,0-7.59683-1.62511,19.99992,19.99992,0,0,0-10.56813,2.75954,18.57439,18.57439,0,0,0-7.06812,7.8086,25.79666,25.79666,0,0,0-2.5196,11.703,26.4088,26.4088,0,0,0,2.5581,11.90541,19.12824,19.12824,0,0,0,7.193,8.00065,20.09118,20.09118,0,0,0,10.72215,2.8464,16.9446,16.9446,0,0,0,7.44328-1.5866,14.81375,14.81375,0,0,0,5.558-4.67389V86.5462h14.47244V32.50206Zm-2.5966,40.18681a8.54613,8.54613,0,0,1-6.82771,3.04831,8.66422,8.66422,0,0,1-6.86574-3.04831,11.68507,11.68507,0,0,1-2.6445-7.92364,11.668,11.668,0,0,1,2.6445-7.9241,8.66422,8.66422,0,0,1,6.86574-3.04831,8.57372,8.57372,0,0,1,6.82771,3.0098,11.73942,11.73942,0,0,1,2.5966,7.96261A11.80609,11.80609,0,0,1,224.20433,72.68887Z"/><path class="cls-2" d="M292.42273,65.82266q0-11.06352-5.76981-17.39585-5.78391-6.33257-16.50136-6.337a24.9176,24.9176,0,0,0-12.03031,2.8079,19.6118,19.6118,0,0,0-8.03915,7.96214,24.17259,24.17259,0,0,0-2.8464,11.90541,23.704,23.704,0,0,0,2.79851,11.703,19.29956,19.29956,0,0,0,8.087,7.79874,26.25468,26.25468,0,0,0,12.35712,2.76,28.45722,28.45722,0,0,0,10.92405-1.99088,22.14544,22.14544,0,0,0,8.25091-5.80832L282.095,71.66948a15.50277,15.50277,0,0,1-4.82744,3.33708,13.76566,13.76566,0,0,1-5.4909,1.13443,10.1136,10.1136,0,0,1-6.337-1.99041,10.571,10.571,0,0,1-3.6545-5.73132h30.5512Q292.423,67.52478,292.42273,65.82266Zm-30.9644-5.1256a11.32345,11.32345,0,0,1,3.04832-6.17363,8.48769,8.48769,0,0,1,11.61663.03851,8.48371,8.48371,0,0,1,2.24069,6.13512Z"/><path class="cls-2" d="M324.17644,42.58l-9.26091,30.5512L305.73209,42.58H290.85538L307.27081,86.5462h14.87624L338.639,42.58Z"/><path class="cls-2" d="M367.5651,61.79346a71.90551,71.90551,0,0,0-7.83724-2.72151A31.96808,31.96808,0,0,1,354.03505,57.12a2.66623,2.66623,0,0,1-1.789-2.3562,2.26438,2.26438,0,0,1,1.1349-2.06742,5.74077,5.74077,0,0,1,3.01028-.69258q5.43738,0,13.98176,4.472l4.87579-9.42432a35.18761,35.18761,0,0,0-18.29034-5.12512q-7.96238,0-13.00133,3.77893a12.33588,12.33588,0,0,0-5.0392,10.44323,10.54791,10.54791,0,0,0,2.23129,6.99112,14.3925,14.3925,0,0,0,5.2505,4.0198,64.27377,64.27377,0,0,0,7.63533,2.72151,35.59332,35.59332,0,0,1,5.73132,1.95191,2.77112,2.77112,0,0,1,1.827,2.5196,2.17509,2.17509,0,0,1-1.2598,1.99042,7.02651,7.02651,0,0,1-3.37512.69258,23.68046,23.68046,0,0,1-7.7607-1.4232,32.36529,32.36529,0,0,1-7.83724-4.01981l-4.55791,9.34731A28.46341,28.46341,0,0,0,345.909,85.6132a36.34941,36.34941,0,0,0,10.72262,1.57722q8.29411,0,13.453-3.7794a12.22408,12.22408,0,0,0,5.1641-10.44324,10.70421,10.70421,0,0,0-2.27919-7.10662A14.34472,14.34472,0,0,0,367.5651,61.79346Z"/><path class="cls-2" d="M407.79041,74.02568a14.00122,14.00122,0,0,1-5.60641,1.4617q-3.82236,0-3.81743-4.62552V52.1771h9.45236V42.58h-9.45236V32.50206H383.98006V42.58h-6.09662V52.1771h6.09662V73.13119q0,6.59175,4.01981,10.31833,4.0245,3.75052,10.5301,3.7409a27.20322,27.20322,0,0,0,6.414-.76959,21.46987,21.46987,0,0,0,5.60641-2.15382Z"/><path class="cls-2" d="M463.43054,32.50206V86.5462h14.46305V32.50206Z"/><path class="cls-2" d="M529.1871,65.82266q0-11.06352-5.76981-17.39585-5.76982-6.33257-16.492-6.337a24.91442,24.91442,0,0,0-12.02984,2.8079,19.60622,19.60622,0,0,0-8.03915,7.96214,24.1675,24.1675,0,0,0-2.8464,11.90541,23.70382,23.70382,0,0,0,2.798,11.703,19.30073,19.30073,0,0,0,8.08751,7.79874,26.252,26.252,0,0,0,12.35712,2.76,28.46059,28.46059,0,0,0,10.92405-1.99088,22.30454,22.30454,0,0,0,8.25091-5.80832l-7.55832-7.55833a15.54778,15.54778,0,0,1-4.8373,3.33708,13.68652,13.68652,0,0,1-5.48151,1.13443,10.1136,10.1136,0,0,1-6.337-1.99041,10.51817,10.51817,0,0,1-3.654-5.73132h30.5512C529.16832,67.82294,529.1871,66.95756,529.1871,65.82266Zm-30.95454-5.1256a11.25756,11.25756,0,0,1,3.04831-6.17363,8.4877,8.4877,0,0,1,11.61664.03851,8.47773,8.47773,0,0,1,2.23083,6.13512Z"/><path class="cls-2" d="M538.65931,79.22781A4.17894,4.17894,0,0,0,535.534,77.93a4.31643,4.31643,0,0,0-3.17321,1.29784,4.52332,4.52332,0,0,0-1.2983,3.33708,4.652,4.652,0,0,0,1.2983,3.36573,4.25027,4.25027,0,0,0,3.17321,1.34619,4.11686,4.11686,0,0,0,3.12532-1.34619,4.74371,4.74371,0,0,0,1.2598-3.36573A4.61092,4.61092,0,0,0,538.65931,79.22781Z"/><path class="cls-2" d="M590.86657,53.79282a19.0145,19.0145,0,0,0-7.31792-7.7222,20.88687,20.88687,0,0,0-10.732-2.75954,19.26115,19.26115,0,0,0-9.46235,2.26933,16.4373,16.4373,0,0,0-6.46193,6.51029V43.55149h-7.5588V99.44142h7.5588V78.00651a16.32113,16.32113,0,0,0,6.50044,6.5009A19.60155,19.60155,0,0,0,572.98,86.7866a20.83082,20.83082,0,0,0,10.69351-2.7215,18.61048,18.61048,0,0,0,7.23152-7.64519,24.01322,24.01322,0,0,0,2.5581-11.25086A24.16457,24.16457,0,0,0,590.86657,53.79282ZM583.914,72.80438a13.40081,13.40081,0,0,1-5.11574,5.4524,15.21284,15.21284,0,0,1-14.87671,0,13.73978,13.73978,0,0,1-5.15424-5.40451,17.43766,17.43766,0,0,1,0-15.73223,13.71911,13.71911,0,0,1,5.15424-5.443,14.3229,14.3229,0,0,1,7.43343-1.95192,14.08452,14.08452,0,0,1,7.39492,1.95192,13.84682,13.84682,0,0,1,5.1256,5.443,16.374,16.374,0,0,1,1.866,7.8086A16.68664,16.68664,0,0,1,583.914,72.80438Z"/><path class="cls-2" d="M601.86763,32.50206V86.5462h7.5588V32.50206Z"/><polygon class="cls-2" points="460.152 42.58 437.938 99.441 423.821 99.441 429.273 85.488 411.07 42.58 425.937 42.58 436.418 71.189 445.765 42.58 460.152 42.58"/></svg>